<svg width="450" height="450" viewBox="0 0 450 450" fill="none" xmlns="http://www.w3.org/2000/svg">
<g clip-path="url(#clip0)">
<rect width="450" height="450" fill="#303A4B"/>
<path d="M345.062 170.61C368.909 170.61 388.019 177.797 402.392 192.17C416.766 206.543 423.952 226.307 423.952 251.46V416.1C423.952 419.367 422.319 421 419.052 421H403.372C400.106 421 398.472 419.367 398.472 416.1V256.36C398.472 237.087 392.756 221.897 381.322 210.79C370.216 199.357 355.679 193.64 337.712 193.64C318.766 193.64 303.412 199.193 291.652 210.3C280.219 221.407 274.502 236.433 274.502 255.38V416.1C274.502 419.367 272.869 421 269.602 421H253.922C250.656 421 249.022 419.367 249.022 416.1V256.36C249.022 237.087 243.469 221.897 232.362 210.79C221.256 199.357 206.719 193.64 188.752 193.64C169.479 193.64 154.126 199.193 142.692 210.3C131.586 221.407 126.032 236.433 126.032 255.38V416.1C126.032 419.367 124.399 421 121.132 421H104.962C101.696 421 100.062 419.367 100.062 416.1V178.94C100.062 175.673 101.696 174.04 104.962 174.04H121.132C124.399 174.04 126.032 175.673 126.032 178.94V200.99C126.032 201.643 126.359 202.133 127.012 202.46C127.666 202.787 128.156 202.623 128.482 201.97C135.342 191.517 144.489 183.677 155.922 178.45C167.682 173.223 180.912 170.61 195.612 170.61C212.599 170.61 227.136 174.367 239.222 181.88C251.636 189.067 260.946 199.357 267.152 212.75C267.806 214.057 268.622 214.22 269.602 213.24C276.462 199.193 286.426 188.577 299.492 181.39C312.559 174.203 327.749 170.61 345.062 170.61Z" fill="white"/>
<path d="M37.2646 305.85L39.2647 305.85L39.2646 305.837L37.2646 305.85ZM35.7946 82.9H33.7946L33.7947 82.9132L35.7946 82.9ZM61.7646 82.9L63.7645 82.9176L63.7646 82.9088V82.9H61.7646ZM59.8046 305.85L57.8047 305.832L57.8046 305.841V305.85H59.8046ZM29.4246 412.18L30.8388 410.766L29.4246 412.18ZM29.4246 376.9L28.0104 375.486L29.4246 376.9ZM64.7046 376.9L66.1188 375.486L66.1188 375.486L64.7046 376.9ZM64.7046 412.18L66.1188 413.594L66.1188 413.594L64.7046 412.18ZM42.1646 308.75C40.8396 308.75 40.2131 308.42 39.9038 308.111C39.5945 307.801 39.2646 307.175 39.2646 305.85H35.2646C35.2646 307.792 35.7514 309.615 37.0754 310.939C38.3994 312.263 40.223 312.75 42.1646 312.75V308.75ZM39.2646 305.837L37.7946 82.8868L33.7947 82.9132L35.2647 305.863L39.2646 305.837ZM37.7946 82.9C37.7946 81.5749 38.1245 80.9485 38.4338 80.6392C38.7431 80.3299 39.3696 80 40.6946 80V76C38.753 76 36.9294 76.4867 35.6054 77.8108C34.2814 79.1348 33.7946 80.9583 33.7946 82.9H37.7946ZM40.6946 80H56.8646V76H40.6946V80ZM56.8646 80C58.1897 80 58.8161 80.3299 59.1254 80.6392C59.4347 80.9485 59.7646 81.5749 59.7646 82.9H63.7646C63.7646 80.9584 63.2779 79.1348 61.9538 77.8108C60.6298 76.4867 58.8062 76 56.8646 76V80ZM59.7647 82.8824L57.8047 305.832L61.8045 305.868L63.7645 82.9176L59.7647 82.8824ZM57.8046 305.85C57.8046 307.175 57.4747 307.801 57.1654 308.111C56.8561 308.42 56.2297 308.75 54.9046 308.75V312.75C56.8462 312.75 58.6698 312.263 59.9938 310.939C61.3179 309.615 61.8046 307.792 61.8046 305.85H57.8046ZM54.9046 308.75H42.1646V312.75H54.9046V308.75ZM47.0646 417.04C40.3438 417.04 34.9937 414.921 30.8388 410.766L28.0104 413.594C33.0021 418.586 39.4121 421.04 47.0646 421.04V417.04ZM30.8388 410.766C26.6839 406.611 24.5646 401.261 24.5646 394.54H20.5646C20.5646 402.193 23.0187 408.602 28.0104 413.594L30.8388 410.766ZM24.5646 394.54C24.5646 387.819 26.6839 382.469 30.8388 378.314L28.0104 375.486C23.0187 380.478 20.5646 386.887 20.5646 394.54H24.5646ZM30.8388 378.314C34.9937 374.159 40.3438 372.04 47.0646 372.04V368.04C39.4121 368.04 33.0021 370.494 28.0104 375.486L30.8388 378.314ZM47.0646 372.04C53.7854 372.04 59.1355 374.159 63.2904 378.314L66.1188 375.486C61.1271 370.494 54.7171 368.04 47.0646 368.04V372.04ZM63.2904 378.314C67.4453 382.469 69.5646 387.819 69.5646 394.54H73.5646C73.5646 386.887 71.1106 380.478 66.1188 375.486L63.2904 378.314ZM69.5646 394.54C69.5646 401.261 67.4453 406.611 63.2904 410.766L66.1188 413.594C71.1106 408.602 73.5646 402.193 73.5646 394.54H69.5646ZM63.2904 410.766C59.1355 414.921 53.7854 417.04 47.0646 417.04V421.04C54.7171 421.04 61.1271 418.586 66.1188 413.594L63.2904 410.766Z" fill="#FF5200"/>
</g>
<defs>
<clipPath id="clip0">
<rect width="450" height="450" fill="white"/>
</clipPath>
</defs>
</svg>
