<svg width="1600" height="408" viewBox="0 0 1600 408" fill="none" xmlns="http://www.w3.org/2000/svg">
<g clip-path="url(#clip0)">
<path d="M356.291 125.61C380.138 125.61 399.248 132.797 413.621 147.17C427.994 161.543 435.181 181.307 435.181 206.46V371.1C435.181 374.367 433.548 376 430.281 376H414.601C411.334 376 409.701 374.367 409.701 371.1V211.36C409.701 192.087 403.984 176.897 392.551 165.79C381.444 154.357 366.908 148.64 348.941 148.64C329.994 148.64 314.641 154.193 302.881 165.3C291.448 176.407 285.731 191.433 285.731 210.38V371.1C285.731 374.367 284.098 376 280.831 376H265.151C261.884 376 260.251 374.367 260.251 371.1V211.36C260.251 192.087 254.698 176.897 243.591 165.79C232.484 154.357 217.948 148.64 199.981 148.64C180.708 148.64 165.354 154.193 153.921 165.3C142.814 176.407 137.261 191.433 137.261 210.38V371.1C137.261 374.367 135.628 376 132.361 376H116.191C112.924 376 111.291 374.367 111.291 371.1V133.94C111.291 130.673 112.924 129.04 116.191 129.04H132.361C135.628 129.04 137.261 130.673 137.261 133.94V155.99C137.261 156.643 137.588 157.133 138.241 157.46C138.894 157.787 139.384 157.623 139.711 156.97C146.571 146.517 155.718 138.677 167.151 133.45C178.911 128.223 192.141 125.61 206.841 125.61C223.828 125.61 238.364 129.367 250.451 136.88C262.864 144.067 272.174 154.357 278.381 167.75C279.034 169.057 279.851 169.22 280.831 168.24C287.691 154.193 297.654 143.577 310.721 136.39C323.788 129.203 338.978 125.61 356.291 125.61ZM544.524 125.12C573.27 125.12 595.157 132.633 610.184 147.66C625.21 162.36 632.724 182.287 632.724 207.44V371.1C632.724 374.367 631.09 376 627.824 376H611.654C608.387 376 606.754 374.367 606.754 371.1V348.07C606.754 347.417 606.427 346.927 605.774 346.6C605.447 346.273 604.957 346.437 604.304 347.09C595.81 357.87 584.704 366.037 570.984 371.59C557.59 377.143 542.564 379.92 525.904 379.92C503.364 379.92 484.254 374.203 468.574 362.77C452.894 351.337 445.054 333.86 445.054 310.34C445.054 286.167 454.037 267.057 472.004 253.01C489.97 238.963 514.634 231.94 545.994 231.94H604.794C606.1 231.94 606.754 231.287 606.754 229.98V207.93C606.754 189.637 601.527 175.1 591.074 164.32C580.947 153.54 565.267 148.15 544.034 148.15C527.374 148.15 513.654 151.58 502.874 158.44C492.094 165.3 485.397 174.447 482.784 185.88C481.804 189.147 479.844 190.617 476.904 190.29L459.754 187.84C456.16 187.187 454.69 185.88 455.344 183.92C458.284 166.28 467.757 152.07 483.764 141.29C500.097 130.51 520.35 125.12 544.524 125.12ZM530.314 357.38C550.894 357.38 568.697 352.317 583.724 342.19C599.077 332.063 606.754 318.017 606.754 300.05V255.46C606.754 254.153 606.1 253.5 604.794 253.5H548.444C525.25 253.5 506.467 258.4 492.094 268.2C478.047 278 471.024 291.557 471.024 308.87C471.024 324.877 476.577 336.963 487.684 345.13C498.79 353.297 513 357.38 530.314 357.38ZM754.665 146.19C754.665 149.457 753.031 151.09 749.765 151.09H692.435C691.128 151.09 690.475 151.743 690.475 153.05V307.89C690.475 324.55 694.231 336.31 701.745 343.17C709.258 349.703 721.345 352.97 738.005 352.97H749.275C752.541 352.97 754.175 354.603 754.175 357.87V371.1C754.175 374.367 752.541 376 749.275 376L734.575 376.49C711.708 376.49 694.395 372.08 682.635 363.26C671.201 354.44 665.321 338.27 664.995 314.75V153.05C664.995 151.743 664.341 151.09 663.035 151.09H633.635C630.368 151.09 628.735 149.457 628.735 146.19V133.94C628.735 130.673 630.368 129.04 633.635 129.04H663.035C664.341 129.04 664.995 128.387 664.995 127.08V71.22C664.995 67.9533 666.628 66.32 669.895 66.32H685.575C688.841 66.32 690.475 67.9533 690.475 71.22V127.08C690.475 128.387 691.128 129.04 692.435 129.04H749.765C753.031 129.04 754.665 130.673 754.665 133.94V146.19ZM867.058 146.19C867.058 149.457 865.425 151.09 862.158 151.09H804.828C803.522 151.09 802.868 151.743 802.868 153.05V307.89C802.868 324.55 806.625 336.31 814.138 343.17C821.652 349.703 833.738 352.97 850.398 352.97H861.668C864.935 352.97 866.568 354.603 866.568 357.87V371.1C866.568 374.367 864.935 376 861.668 376L846.968 376.49C824.102 376.49 806.788 372.08 795.028 363.26C783.595 354.44 777.715 338.27 777.388 314.75V153.05C777.388 151.743 776.735 151.09 775.428 151.09H746.028C742.762 151.09 741.128 149.457 741.128 146.19V133.94C741.128 130.673 742.762 129.04 746.028 129.04H775.428C776.735 129.04 777.388 128.387 777.388 127.08V71.22C777.388 67.9533 779.022 66.32 782.288 66.32H797.968C801.235 66.32 802.868 67.9533 802.868 71.22V127.08C802.868 128.387 803.522 129.04 804.828 129.04H862.158C865.425 129.04 867.058 130.673 867.058 133.94V146.19ZM973.572 125.61C998.726 125.61 1018.98 133.287 1034.33 148.64C1050.01 163.993 1057.85 184.247 1057.85 209.4V371.1C1057.85 374.367 1056.22 376 1052.95 376H1036.78C1033.52 376 1031.88 374.367 1031.88 371.1V214.3C1031.88 195.027 1026 179.347 1014.24 167.26C1002.48 154.847 987.129 148.64 968.182 148.64C948.582 148.64 932.739 154.683 920.652 166.77C908.566 178.53 902.522 194.047 902.522 213.32V371.1C902.522 374.367 900.889 376 897.622 376H881.452C878.186 376 876.552 374.367 876.552 371.1V37.9C876.552 34.6333 878.186 33 881.452 33H897.622C900.889 33 902.522 34.6333 902.522 37.9V157.95C902.522 158.93 902.686 159.583 903.012 159.91C903.666 159.91 904.156 159.583 904.482 158.93C911.669 148.15 921.142 139.983 932.902 134.43C944.662 128.55 958.219 125.61 973.572 125.61ZM1169.23 356.89C1184.58 356.89 1197.65 353.46 1208.43 346.6C1219.53 339.413 1228.19 329.613 1234.4 317.2C1236.03 314.26 1238.15 313.443 1240.77 314.75L1253.51 321.12C1256.45 322.753 1257.26 324.877 1255.96 327.49C1248.77 343.497 1237.34 356.237 1221.66 365.71C1206.3 375.183 1188.17 379.92 1167.27 379.92C1144.4 379.92 1124.96 374.367 1108.96 363.26C1092.95 352.153 1082.01 336.963 1076.13 317.69C1073.51 309.523 1071.72 300.377 1070.74 290.25C1069.76 280.123 1069.27 267.383 1069.27 252.03C1069.27 236.023 1069.43 223.937 1069.76 215.77C1070.41 207.603 1071.55 200.09 1073.19 193.23C1078.41 172.65 1089.03 156.153 1105.04 143.74C1121.37 131.327 1141.3 125.12 1164.82 125.12C1191.6 125.12 1213 132.143 1229.01 146.19C1245.01 159.91 1254.98 179.02 1258.9 203.52C1259.88 209.727 1260.53 217.077 1260.86 225.57C1261.18 233.737 1261.35 244.027 1261.35 256.44C1261.35 259.707 1259.71 261.34 1256.45 261.34H1096.71C1095.4 261.34 1094.75 261.993 1094.75 263.3C1094.75 284.207 1095.56 298.09 1097.2 304.95C1100.79 320.957 1108.79 333.697 1121.21 343.17C1133.95 352.317 1149.95 356.89 1169.23 356.89ZM1098.18 199.11C1096.54 205.317 1095.4 218.057 1094.75 237.33C1094.75 238.637 1095.4 239.29 1096.71 239.29H1233.42C1234.72 239.29 1235.38 238.637 1235.38 237.33C1235.38 220.997 1234.56 208.747 1232.93 200.58C1229.33 184.9 1221.49 172.323 1209.41 162.85C1197.32 153.05 1182.46 148.15 1164.82 148.15C1147.18 148.15 1132.48 152.887 1120.72 162.36C1108.96 171.507 1101.44 183.757 1098.18 199.11ZM1327.14 376C1324.53 376 1322.73 374.693 1321.75 372.08L1252.17 134.43L1251.68 132.96C1251.68 130.347 1253.32 129.04 1256.58 129.04H1273.24C1276.18 129.04 1277.98 130.51 1278.63 133.45L1334.98 337.78C1335.31 338.433 1335.64 338.76 1335.96 338.76C1336.62 338.76 1337.11 338.433 1337.43 337.78L1394.27 132.96C1394.93 130.347 1396.72 129.04 1399.66 129.04H1414.85C1417.47 129.04 1419.26 130.347 1420.24 132.96L1478.06 337.29C1478.39 337.943 1478.72 338.27 1479.04 338.27C1479.7 338.27 1480.19 337.943 1480.51 337.29L1537.84 133.45C1538.5 130.51 1540.29 129.04 1543.23 129.04L1559.4 129.53C1561.04 129.53 1562.34 130.02 1563.32 131C1564.3 131.98 1564.47 133.287 1563.81 134.92L1493.74 372.08C1492.76 374.693 1490.97 376 1488.35 376H1471.69C1469.08 376 1467.28 374.693 1466.3 372.08L1408.48 176.08C1408.16 175.427 1407.67 175.1 1407.01 175.1C1406.69 175.1 1406.36 175.427 1406.03 176.08L1349.68 372.08C1348.7 374.693 1346.91 376 1344.29 376H1327.14Z" fill="white"/>
<path d="M54.0465 265.75C50.7798 265.75 49.1465 264.117 49.1465 260.85L47.6765 37.9C47.6765 34.6333 49.3098 33 52.5765 33H68.7465C72.0132 33 73.6465 34.6333 73.6465 37.9L71.6865 260.85C71.6865 264.117 70.0532 265.75 66.7865 265.75H54.0465ZM58.9465 374.04C51.7598 374.04 45.8798 371.753 41.3065 367.18C36.7332 362.607 34.4465 356.727 34.4465 349.54C34.4465 342.353 36.7332 336.473 41.3065 331.9C45.8798 327.327 51.7598 325.04 58.9465 325.04C66.1332 325.04 72.0132 327.327 76.5865 331.9C81.1598 336.473 83.4465 342.353 83.4465 349.54C83.4465 356.727 81.1598 362.607 76.5865 367.18C72.0132 371.753 66.1332 374.04 58.9465 374.04Z" fill="#FF5200"/>
</g>
<defs>
<clipPath id="clip0">
<rect width="1600" height="408" fill="white"/>
</clipPath>
</defs>
</svg>
