<?xml version="1.0" standalone="no"?>
<!DOCTYPE svg PUBLIC "-//W3C//DTD SVG 20010904//EN"
 "http://www.w3.org/TR/2001/REC-SVG-20010904/DTD/svg10.dtd">
<svg version="1.0" xmlns="http://www.w3.org/2000/svg"
 width="420.000000pt" height="420.000000pt" viewBox="0 0 420.000000 420.000000"
 preserveAspectRatio="xMidYMid meet">
<metadata>
Created by potrace 1.11, written by Peter Selinger 2001-2013
</metadata>
<g transform="translate(0.000000,420.000000) scale(0.100000,-0.100000)"
fill="#000000" stroke="none">
<path d="M0 2100 l0 -2100 2100 0 2100 0 0 2100 0 2100 -2100 0 -2100 0 0
-2100z m4110 0 l0 -2010 -2010 0 -2010 0 0 2010 0 2010 2010 0 2010 0 0 -2010z"/>
<path d="M740 2888 c0 -40 7 -352 15 -693 8 -341 15 -650 15 -687 l0 -68 125
0 125 0 0 58 c0 89 19 1012 25 1250 l6 212 -156 0 -155 0 0 -72z"/>
<path d="M1914 2459 c-104 -13 -211 -85 -296 -198 l-26 -34 -6 79 c-12 135 0
124 -121 124 l-105 0 0 -870 0 -870 125 0 125 0 0 673 c0 757 -9 679 84 775
119 124 281 147 331 47 19 -39 20 -63 23 -767 l3 -728 129 0 130 0 0 678 0
677 45 57 c72 92 159 142 251 143 38 0 60 -6 81 -21 58 -43 57 -33 61 -816 l3
-718 125 0 125 0 -3 738 c-3 734 -3 737 -26 804 -46 136 -126 210 -248 226
-162 21 -293 -37 -411 -181 l-31 -39 -24 54 c-59 126 -186 188 -344 167z"/>
<path d="M851 1089 c-56 -11 -104 -43 -139 -94 -24 -36 -27 -49 -27 -122 0
-74 3 -85 30 -124 75 -107 236 -124 333 -35 91 82 87 249 -7 329 -49 41 -123
59 -190 46z"/>
</g>
</svg>
